<?xml version="1.0" encoding="UTF-8"?>
<!DOCTYPE svg PUBLIC "-//W3C//DTD SVG 1.1//EN" "http://www.w3.org/Graphics/SVG/1.1/DTD/svg11.dtd">
<!-- Creator: CorelDRAW 2021 (64-Bit) -->
<svg xmlns="http://www.w3.org/2000/svg" xml:space="preserve" width="4.81419in" height="5.8285in" version="1.1" style="shape-rendering:geometricPrecision; text-rendering:geometricPrecision; image-rendering:optimizeQuality; fill-rule:evenodd; clip-rule:evenodd"
viewBox="0 0 8349.36 10108.51"
 xmlns:xlink="http://www.w3.org/1999/xlink"
 xmlns:xodm="http://www.corel.com/coreldraw/odm/2003">
 <defs>
  <style type="text/css">
   <![CDATA[
    .str0 {stroke:black;stroke-width:192.7;stroke-linecap:round;stroke-linejoin:round;stroke-miterlimit:2.61313}
    .fil1 {fill:none}
    .fil2 {fill:#FF6600}
    .fil0 {fill:white}
   ]]>
  </style>
 </defs>
 <g id="Layer_x0020_1">
  <metadata id="CorelCorpID_0Corel-Layer"/>
  <g id="_1944120018000">
   <path class="fil0 str0" d="M1387.71 9385.2l0 -4529.6 -1291.35 0 13.66 -2383.57c93.3,-1124.71 1025.77,-1934.6 2941.31,-2375.68 929.69,1008.84 1705.53,844.86 2392.08,0 1683.29,486.19 2512.45,1198.24 2728.89,2072.33l80.73 2431.87 -1355.98 -1.42 -182.15 4791c-1938.03,793.04 -3696.86,867.35 -5327.19,-4.94z"/>
   <line class="fil1 str0" x1="1405.1" y1="3043.58" x2="1387.71" y2= "4855.6" />
   <line class="fil1 str0" x1="6898.57" y1="2958.25" x2="6915.74" y2= "4604.11" />
   <path class="fil2" d="M1389.65 9390.19c1479.41,732.4 3585.19,697.48 5247.21,-39.33l223.49 -6392.61c-1091.34,2355.39 -3347.71,4786.28 -5470.7,6431.94z"/>
  </g>
 </g>
</svg>
