<?xml version="1.0" encoding="UTF-8"?>
<!DOCTYPE svg PUBLIC "-//W3C//DTD SVG 1.1//EN" "http://www.w3.org/Graphics/SVG/1.1/DTD/svg11.dtd">
<!-- Creator: CorelDRAW 2021 (64-Bit) -->
<svg xmlns="http://www.w3.org/2000/svg" xml:space="preserve" width="4.35828in" height="4.39923in" version="1.1" style="shape-rendering:geometricPrecision; text-rendering:geometricPrecision; image-rendering:optimizeQuality; fill-rule:evenodd; clip-rule:evenodd"
viewBox="0 0 997.68 1007.06"
 xmlns:xlink="http://www.w3.org/1999/xlink"
 xmlns:xodm="http://www.corel.com/coreldraw/odm/2003">
 <defs>
  <style type="text/css">
   <![CDATA[
    .str0 {stroke:black;stroke-width:9.54;stroke-linecap:round;stroke-linejoin:round;stroke-miterlimit:2.61313}
    .str1 {stroke:black;stroke-width:6.36;stroke-linecap:round;stroke-linejoin:round;stroke-miterlimit:2.61313}
    .fil1 {fill:none}
    .fil2 {fill:#6699FF}
    .fil4 {fill:#FF6600}
    .fil0 {fill:white}
    .fil3 {fill:black;fill-rule:nonzero}
   ]]>
  </style>
 </defs>
 <g id="Layer_x0020_1">
  <metadata id="CorelCorpID_0Corel-Layer"/>
  <g id="_2014570895392">
   <path class="fil0 str0" d="M329.56 4.77l634.14 0c56.92,297.78 29.19,584.27 -70.46,861.18l-683.07 5.87c130.95,-260.89 176.34,-574.85 119.39,-867.05z"/>
   <g>
    <line class="fil1 str1" x1="420.67" y1="170.47" x2="756.99" y2= "170.47" />
    <line class="fil1 str1" x1="803.92" y1="170.47" x2="868.72" y2= "170.47" />
   </g>
   <g>
    <line class="fil1 str1" x1="419.42" y1="270.29" x2="754.29" y2= "270.29" />
    <line class="fil1 str1" x1="802.5" y1="270.29" x2="867.03" y2= "270.29" />
   </g>
   <g>
    <line class="fil1 str1" x1="423.8" y1="360.84" x2="759.29" y2= "360.84" />
    <line class="fil1 str1" x1="802.39" y1="360.84" x2="867.03" y2= "360.84" />
   </g>
   <path class="fil2" d="M460.14 861.02c120.76,7.86 298.77,13.95 425.72,4.99 72.02,-151.05 99.53,-322.53 103.74,-500.05 -86.03,185.68 -362.11,365.33 -529.47,495.06z"/>
   <path class="fil3" d="M465.28 740.49l-10 0 0 -13.64c-14.31,-3.27 -25.52,-9.88 -33.64,-19.82l8.18 -6.73c8.61,11.52 19.27,17.28 32,17.28 3.88,0 7.39,-0.61 10.54,-1.82 3.39,-1.09 6.24,-2.73 8.55,-4.91 2.42,-2.18 4.24,-4.79 5.46,-7.82 1.33,-3.03 2,-6.3 2,-9.82 -0.12,-4.85 -2.12,-9.64 -6,-14.36 -4.24,-4.73 -10.42,-9.15 -18.55,-13.27l-8.73 -4.36c-5.94,-3.03 -10.91,-5.94 -14.91,-8.73 -1.94,-1.33 -3.67,-2.67 -5.18,-4 -1.51,-1.33 -2.76,-2.67 -3.73,-4 -2.18,-2.79 -3.64,-5.45 -4.36,-8 -0.73,-2.67 -1.09,-5.52 -1.09,-8.55l0 -0.73c0,-3.64 0.73,-7.21 2.18,-10.73 1.21,-3.15 3.15,-6.06 5.82,-8.73 2.67,-2.43 5.7,-4.36 9.09,-5.82 3.64,-1.33 7.52,-2 11.64,-2l0.73 0 0 -12.36 10 0 0 13.64c9.46,2.79 16.36,7.15 20.73,13.09l-7.64 5.82c-8.97,-6.42 -16.36,-9.64 -22.18,-9.64 -6.3,0 -11.21,1.51 -14.73,4.54 -3.76,3.15 -5.7,7.4 -5.82,12.73 1.33,10.42 10.61,19.27 27.82,26.55l6 2.55c1.21,0.61 2.3,1.15 3.27,1.64 0.49,0.24 0.94,0.48 1.36,0.73 0.42,0.24 0.88,0.42 1.36,0.55l-0.18 0c15.64,9.09 23.46,20.06 23.46,32.91 0,4.24 -0.85,8.55 -2.55,12.91 -1.82,4.24 -4.24,7.88 -7.27,10.91 -3.03,3.27 -6.55,5.88 -10.55,7.82 -4.24,2.06 -8.61,3.15 -13.09,3.27l0 12.91z"/>
   <path class="fil0 str0" d="M124.16 135.24l634.14 0c56.92,297.78 29.19,584.27 -70.46,861.18l-683.07 5.87c130.95,-260.89 176.34,-574.85 119.39,-867.05z"/>
   <g>
    <line class="fil1 str0" x1="215.26" y1="300.94" x2="551.58" y2= "300.94" />
    <line class="fil1 str0" x1="598.51" y1="300.94" x2="663.32" y2= "300.94" />
   </g>
   <g>
    <line class="fil1 str0" x1="214.01" y1="400.76" x2="548.89" y2= "400.76" />
    <line class="fil1 str0" x1="597.1" y1="400.76" x2="661.63" y2= "400.76" />
   </g>
   <g>
    <line class="fil1 str0" x1="218.39" y1="491.31" x2="553.88" y2= "491.31" />
    <line class="fil1 str0" x1="596.98" y1="491.31" x2="661.63" y2= "491.31" />
   </g>
   <path class="fil4" d="M254.73 991.49c120.76,7.86 298.77,13.95 425.72,4.99 72.02,-151.05 99.53,-322.53 103.74,-500.05 -86.03,185.68 -362.11,365.33 -529.47,495.06z"/>
   <path class="fil3 str0" d="M259.88 870.96l-10 0 0 -13.64c-14.31,-3.27 -25.52,-9.88 -33.64,-19.82l8.18 -6.73c8.61,11.52 19.27,17.28 32,17.28 3.88,0 7.39,-0.61 10.54,-1.82 3.39,-1.09 6.24,-2.73 8.55,-4.91 2.42,-2.18 4.24,-4.79 5.46,-7.82 1.33,-3.03 2,-6.3 2,-9.82 -0.12,-4.85 -2.12,-9.64 -6,-14.36 -4.24,-4.73 -10.42,-9.15 -18.55,-13.27l-8.73 -4.36c-5.94,-3.03 -10.91,-5.94 -14.91,-8.73 -1.94,-1.33 -3.67,-2.67 -5.18,-4 -1.51,-1.33 -2.76,-2.67 -3.73,-4 -2.18,-2.79 -3.64,-5.45 -4.36,-8 -0.73,-2.67 -1.09,-5.52 -1.09,-8.55l0 -0.73c0,-3.64 0.73,-7.21 2.18,-10.73 1.21,-3.15 3.15,-6.06 5.82,-8.73 2.67,-2.43 5.7,-4.36 9.09,-5.82 3.64,-1.33 7.52,-2 11.64,-2l0.73 0 0 -12.36 10 0 0 13.64c9.46,2.79 16.36,7.15 20.73,13.09l-7.64 5.82c-8.97,-6.42 -16.36,-9.64 -22.18,-9.64 -6.3,0 -11.21,1.51 -14.73,4.54 -3.76,3.15 -5.7,7.4 -5.82,12.73 1.33,10.42 10.61,19.27 27.82,26.55l6 2.55c1.21,0.61 2.3,1.15 3.27,1.64 0.49,0.24 0.94,0.48 1.36,0.73 0.42,0.24 0.88,0.42 1.36,0.55l-0.18 0c15.64,9.09 23.46,20.06 23.46,32.91 0,4.24 -0.85,8.55 -2.55,12.91 -1.82,4.24 -4.24,7.88 -7.27,10.91 -3.03,3.27 -6.55,5.88 -10.55,7.82 -4.24,2.06 -8.61,3.15 -13.09,3.27l0 12.91z"/>
  </g>
 </g>
</svg>
